<?xml version="1.0" standalone="no"?>
<!DOCTYPE svg PUBLIC "-//W3C//DTD SVG 20010904//EN"
 "http://www.w3.org/TR/2001/REC-SVG-20010904/DTD/svg10.dtd">
<svg version="1.0" xmlns="http://www.w3.org/2000/svg"
 width="663.000000pt" height="663.000000pt" viewBox="0 0 663.000000 663.000000"
 preserveAspectRatio="xMidYMid meet">
<metadata>
Created by potrace 1.14, written by Peter Selinger 2001-2017
</metadata>
<g transform="translate(0.000000,663.000000) scale(0.100000,-0.100000)"
fill="#000000" stroke="none">
<path d="M2602 6253 c-1 -7 -2 -29 -2 -48 1 -58 1 -69 0 -357 -1 -153 1 -282
5 -288 3 -5 3 -10 -2 -10 -6 0 -7 -177 -3 -470 1 -18 0 -447 0 -472 0 -10 -1
-30 -1 -45 -1 -16 -1 -41 0 -58 1 -16 1 -37 0 -45 0 -8 0 -50 1 -93 1 -43 0
-80 -3 -84 -4 -3 -2 -13 3 -23 8 -15 -2 -22 -73 -50 -45 -17 -95 -38 -112 -45
-16 -7 -66 -25 -110 -40 -44 -14 -87 -29 -95 -32 -8 -3 -19 -7 -25 -9 -5 -1
-73 -20 -150 -43 -77 -22 -154 -43 -172 -46 -18 -3 -43 -9 -56 -14 -13 -5 -40
-12 -60 -15 -20 -3 -56 -10 -79 -15 -24 -5 -61 -12 -83 -15 -22 -4 -47 -8 -55
-11 -15 -4 -70 -13 -125 -20 -16 -3 -61 -9 -100 -14 -38 -6 -95 -13 -125 -16
-30 -4 -66 -8 -80 -10 -14 -2 -59 -6 -100 -10 -41 -3 -95 -8 -120 -10 -125
-12 -307 -20 -572 -26 -99 -2 -158 -7 -159 -14 -3 -30 -4 -1442 -1 -1451 5
-19 472 -2 616 22 16 3 52 7 80 9 55 4 113 12 161 22 17 3 41 7 55 9 14 1 35
5 46 7 12 3 38 8 58 11 19 3 55 10 78 15 24 6 58 13 77 16 19 3 37 8 41 10 3
2 17 6 31 9 30 6 179 45 199 52 8 3 15 5 15 4 0 0 47 16 105 35 179 62 343
131 492 208 129 66 335 189 348 206 3 4 20 16 38 26 17 11 32 23 32 27 0 4 4
8 10 8 11 0 119 80 162 120 14 14 40 36 57 49 69 52 253 243 344 356 53 66
106 131 118 145 19 23 49 68 75 112 6 10 18 26 26 35 8 10 39 59 68 108 29 50
63 106 75 125 11 19 40 76 64 125 24 50 46 92 50 95 3 3 7 10 8 16 1 7 13 36
27 65 22 50 38 88 85 207 39 98 122 366 147 475 2 9 6 27 10 40 3 12 7 33 10
47 3 14 9 41 14 60 8 32 17 79 25 135 2 11 8 48 14 82 7 34 14 79 16 100 2 21
7 58 10 83 12 89 23 212 30 342 3 42 7 96 11 120 3 24 5 48 5 53 -1 6 -2 35
-4 65 l-3 55 -735 0 c-588 0 -736 -2 -737 -12z"/>
<path d="M6347 4303 c-1 -1 -54 -4 -117 -7 -118 -6 -215 -13 -285 -21 -22 -3
-62 -7 -90 -10 -64 -5 -124 -13 -151 -19 -12 -2 -44 -7 -72 -11 -42 -5 -245
-45 -302 -59 -8 -2 -28 -7 -45 -11 -132 -31 -387 -113 -545 -176 -160 -64
-446 -212 -568 -296 -35 -24 -67 -43 -72 -43 -4 0 -10 -3 -12 -7 -5 -13 -127
-103 -138 -103 -6 0 -10 -3 -10 -7 0 -5 -32 -33 -70 -63 -76 -60 -327 -311
-375 -374 -17 -22 -39 -50 -51 -62 -39 -43 -183 -250 -246 -354 -65 -108 -142
-241 -143 -250 -1 -3 -20 -43 -42 -90 -60 -126 -93 -201 -93 -212 0 -6 -6 -24
-14 -41 -8 -18 -29 -72 -46 -122 -18 -49 -40 -114 -51 -143 -10 -28 -19 -55
-19 -60 0 -4 -8 -29 -16 -57 -9 -27 -18 -63 -21 -80 -3 -16 -9 -38 -14 -47 -5
-10 -8 -18 -5 -18 3 0 0 -15 -5 -32 -5 -18 -12 -49 -15 -68 -3 -19 -7 -43 -10
-52 -3 -10 -7 -28 -9 -40 -6 -34 -25 -140 -29 -163 -4 -21 -15 -97 -22 -150
-2 -16 -6 -46 -9 -65 -3 -19 -7 -64 -10 -100 -3 -36 -8 -83 -11 -105 -3 -22
-7 -103 -9 -181 -2 -77 -5 -145 -6 -150 -1 -5 -1 -23 0 -40 l1 -31 730 0 c510
0 733 4 738 11 3 6 6 463 7 1015 l0 1005 45 15 c25 9 52 21 60 26 8 5 20 10
25 11 6 1 48 16 95 34 81 30 252 87 288 95 9 3 35 9 57 15 22 6 47 12 55 15
31 8 146 36 165 40 11 3 40 9 65 15 25 5 56 12 70 14 14 3 34 7 45 9 16 4 176
30 315 52 45 7 104 15 160 21 30 3 66 7 80 9 23 3 70 7 210 21 143 13 407 25
588 26 69 0 115 5 119 11 11 18 9 1457 -2 1458 -16 2 -166 4 -168 2z"/>
</g>
</svg>
