<?xml version="1.0" encoding="UTF-8" ?>
<!DOCTYPE svg PUBLIC "-//W3C//DTD SVG 1.1//EN" "http://www.w3.org/Graphics/SVG/1.1/DTD/svg11.dtd">
<svg width="577pt" height="176pt" viewBox="0 0 577 176" version="1.1" xmlns="http://www.w3.org/2000/svg">
<g id="#1c1e1fff">
</g>
<g id="#008037ff">
<path fill="#008037" opacity="1.00" d=" M 74.95 5.81 C 88.78 5.73 102.61 5.80 116.44 5.78 C 116.45 7.64 116.54 9.50 116.48 11.36 C 115.37 20.26 112.62 29.04 107.65 36.56 C 99.90 48.51 88.02 57.28 75.07 62.93 C 74.75 43.89 74.99 24.85 74.95 5.81 Z" />
<path fill="#008037" opacity="1.00" d=" M 80.63 146.68 C 87.70 131.78 101.44 121.09 116.32 114.64 C 116.73 133.60 116.21 152.57 116.58 171.53 C 102.74 172.06 88.86 171.61 75.00 171.75 C 74.95 169.31 74.80 166.86 75.05 164.42 C 76.22 158.33 77.60 152.17 80.63 146.68 Z" />
</g>
<g id="#abde5fff">
<path fill="#abde5f" opacity="1.00" d=" M 116.48 11.36 L 116.52 11.18 C 117.40 14.16 115.92 17.11 115.74 20.08 C 113.26 44.72 104.28 69.67 86.42 87.37 C 70.35 103.99 47.61 112.77 24.93 115.22 C 18.67 116.27 12.31 116.04 6.00 116.45 C 6.00 102.60 6.00 88.74 6.00 74.89 C 29.41 74.72 53.40 72.38 75.07 62.93 C 88.02 57.28 99.90 48.51 107.65 36.56 C 112.62 29.04 115.37 20.26 116.48 11.36 Z" />
<path fill="#abde5f" opacity="1.00" d=" M 130.80 72.02 C 147.77 63.91 166.73 61.42 185.35 61.00 C 185.52 74.84 185.30 88.69 185.46 102.53 C 162.05 103.02 137.97 104.99 116.32 114.64 C 101.44 121.09 87.70 131.78 80.63 146.68 C 77.60 152.17 76.22 158.33 75.05 164.42 C 75.89 149.23 78.99 134.04 85.14 120.07 C 93.53 99.05 110.22 81.46 130.80 72.02 Z" />
</g>
<g id="#e8e6e3ff">
<path fill="#e8e6e3" opacity="1.00" d=" M 347.35 60.05 C 351.44 59.97 355.52 59.99 359.61 60.02 C 355.36 79.97 351.04 99.91 346.93 119.89 C 342.80 120.07 338.66 120.02 334.53 119.94 C 338.96 100.01 343.02 80.00 347.35 60.05 Z" />
<path fill="#e8e6e3" opacity="1.00" d=" M 391.67 60.16 C 395.76 59.90 399.85 60.00 403.94 60.02 C 402.41 67.72 401.24 75.62 398.15 82.88 C 401.10 78.79 405.85 75.66 411.06 76.03 C 415.87 75.81 420.59 79.27 421.52 84.05 C 422.31 88.76 421.68 93.57 420.58 98.18 C 419.14 105.42 417.37 112.60 416.17 119.89 C 412.01 120.06 407.86 120.03 403.71 119.93 C 405.60 111.55 407.31 103.13 409.10 94.73 C 409.55 92.39 409.95 89.93 409.29 87.60 C 407.81 85.08 404.09 85.41 402.12 87.15 C 398.89 90.05 397.38 94.33 396.14 98.37 C 394.18 105.50 392.99 112.81 391.35 120.01 C 387.27 119.99 383.21 120.01 379.14 119.99 C 383.23 100.03 387.75 80.16 391.67 60.16 Z" />
<path fill="#e8e6e3" opacity="1.00" d=" M 437.27 65.16 C 445.48 61.48 455.35 62.69 463.13 66.93 C 461.71 69.91 460.50 72.99 458.93 75.90 C 454.67 74.97 450.54 72.72 446.03 73.46 C 442.83 73.69 440.02 76.73 440.53 80.00 C 440.69 84.18 444.91 86.11 447.86 88.24 C 452.80 91.48 457.04 96.78 456.74 102.98 C 457.41 109.78 452.95 116.32 446.73 118.82 C 438.60 122.12 429.04 121.69 421.26 117.61 C 421.26 113.94 421.26 110.27 421.26 106.60 C 426.73 109.09 432.78 111.91 438.91 110.38 C 441.53 109.97 444.39 107.92 444.31 105.01 C 444.67 101.41 441.54 98.91 438.97 96.97 C 434.67 93.83 430.06 90.29 428.50 84.95 C 426.01 77.38 429.93 68.34 437.27 65.16 Z" />
<path fill="#e8e6e3" opacity="1.00" d=" M 218.08 64.10 C 222.26 63.93 226.44 64.00 230.61 64.03 C 229.04 71.34 227.35 78.63 226.05 86.00 C 231.84 86.01 237.63 85.99 243.42 86.01 C 245.00 78.72 246.59 71.42 248.03 64.10 C 252.20 63.93 256.38 64.00 260.56 64.03 C 256.50 82.64 252.58 101.29 248.63 119.94 C 244.49 120.04 240.35 120.01 236.21 119.99 C 237.87 111.98 239.56 103.98 241.38 96.01 C 235.53 95.98 229.68 96.05 223.84 95.96 C 222.03 103.96 220.41 112.00 218.59 120.00 C 214.47 120.00 210.35 120.01 206.23 119.98 C 210.15 101.35 214.24 82.75 218.08 64.10 Z" />
<path fill="#e8e6e3" opacity="1.00" d=" M 368.39 68.43 C 370.96 67.45 373.97 68.23 376.70 68.01 C 376.07 71.02 375.44 74.03 374.75 77.02 C 378.40 76.99 382.05 77.00 385.71 77.00 C 385.04 79.93 384.45 82.87 383.90 85.82 C 380.22 86.01 376.54 85.97 372.87 85.91 C 371.53 94.13 368.58 102.14 368.36 110.50 C 371.43 111.83 374.69 110.89 377.71 109.94 C 377.73 112.96 377.74 115.97 377.75 118.99 C 372.25 121.07 365.84 122.01 360.31 119.60 C 356.15 117.87 355.30 112.68 355.89 108.71 C 357.22 101.06 359.14 93.53 360.64 85.92 C 358.80 85.95 356.97 85.98 355.14 86.01 C 355.46 84.14 355.02 81.92 356.10 80.28 C 358.35 78.62 361.27 78.17 363.57 76.59 C 365.44 74.03 366.55 71.00 368.39 68.43 Z" />
<path fill="#e8e6e3" opacity="1.00" d=" M 262.24 86.23 C 266.09 80.28 272.85 76.26 279.98 76.06 C 284.78 75.81 290.36 76.47 293.63 80.42 C 298.31 85.51 296.82 94.42 291.24 98.25 C 284.97 102.78 276.88 103.21 269.42 103.02 C 269.29 106.09 269.92 109.83 273.16 111.11 C 278.66 113.49 284.56 110.51 289.72 108.58 C 289.74 111.64 289.74 114.70 289.74 117.76 C 282.70 120.80 274.54 122.22 267.11 119.81 C 262.20 118.28 258.54 113.86 257.57 108.86 C 256.48 101.10 257.81 92.81 262.24 86.23 M 276.92 85.97 C 273.55 87.92 271.88 91.61 270.60 95.10 C 274.83 95.09 279.65 94.96 282.99 91.98 C 284.73 90.58 284.86 88.08 284.16 86.11 C 282.38 83.99 278.99 84.61 276.92 85.97 Z" />
<path fill="#e8e6e3" opacity="1.00" d=" M 311.88 76.57 C 317.51 74.76 324.01 76.96 326.97 82.18 C 327.49 80.45 328.11 78.74 328.74 77.03 C 332.00 76.95 335.28 76.95 338.54 77.18 C 335.11 91.38 332.40 105.74 329.23 120.00 C 326.18 120.01 323.13 120.00 320.08 119.98 C 320.20 118.22 320.35 116.46 320.51 114.71 C 317.68 118.13 313.65 120.93 309.07 120.96 C 304.64 121.30 299.97 119.14 297.87 115.14 C 294.47 109.00 295.42 101.56 296.98 95.01 C 299.07 87.26 303.79 79.13 311.88 76.57 M 316.14 86.08 C 309.45 90.40 307.67 99.45 308.31 106.90 C 308.27 110.46 312.71 112.52 315.50 110.46 C 319.62 107.69 321.68 102.69 322.47 97.95 C 322.80 94.99 323.66 91.88 322.49 88.99 C 321.70 86.41 318.61 85.10 316.14 86.08 Z" />
<path fill="#e8e6e3" opacity="1.00" d=" M 510.37 85.08 C 513.09 79.69 518.83 75.45 525.08 76.05 C 529.36 76.03 533.46 78.96 534.73 83.06 C 536.32 87.61 535.29 92.48 534.30 97.04 C 532.68 104.67 531.16 112.32 529.52 119.95 C 525.44 120.03 521.35 120.01 517.27 119.99 C 519.14 110.66 521.28 101.39 523.11 92.06 C 523.65 90.17 522.89 88.35 522.32 86.58 C 520.28 85.79 517.76 85.30 515.99 86.94 C 511.66 90.53 510.16 96.27 508.79 101.48 C 507.49 107.61 506.09 113.73 504.93 119.89 C 500.79 120.07 496.66 120.02 492.53 119.94 C 495.69 105.67 498.80 91.38 501.64 77.05 C 504.87 76.97 508.12 76.98 511.36 77.09 C 510.85 79.73 510.61 82.41 510.37 85.08 Z" />
<path fill="#e8e6e3" opacity="1.00" d=" M 550.95 77.87 C 557.88 74.71 566.00 75.87 572.82 78.77 C 571.61 81.84 570.37 84.89 569.26 87.99 C 565.24 86.57 560.58 84.52 556.47 86.74 C 551.28 90.09 549.41 96.65 549.16 102.50 C 548.98 105.44 549.20 109.24 552.29 110.63 C 557.11 112.49 561.97 109.83 566.36 108.04 C 566.35 111.25 566.33 114.47 566.47 117.68 C 559.52 121.45 550.54 122.38 543.37 118.68 C 538.13 115.88 536.29 109.48 536.60 103.90 C 536.88 93.74 541.10 82.31 550.95 77.87 Z" />
<path fill="#e8e6e3" opacity="1.00" d=" M 460.10 77.01 C 464.06 76.99 468.02 76.96 471.98 77.08 C 472.88 87.44 474.80 97.74 474.55 108.16 C 477.34 98.29 482.79 89.48 486.92 80.15 C 487.63 79.17 487.66 77.39 489.04 77.10 C 493.19 76.82 497.35 77.07 501.51 77.03 C 493.41 93.22 484.54 109.01 476.14 125.04 C 473.66 129.94 470.26 134.72 465.20 137.20 C 460.71 139.65 455.38 139.17 450.50 138.55 C 450.49 135.39 450.49 132.23 450.45 129.07 C 453.63 128.97 457.20 129.92 460.06 128.08 C 462.95 126.20 464.58 123.02 466.36 120.17 C 464.22 105.79 461.93 91.43 460.10 77.01 Z" />
</g>
</svg>
