<?xml version="1.0" encoding="UTF-8" ?>
<!DOCTYPE svg PUBLIC "-//W3C//DTD SVG 1.1//EN" "http://www.w3.org/Graphics/SVG/1.1/DTD/svg11.dtd">
<svg width="366pt" height="89pt" viewBox="0 0 366 89" version="1.1" xmlns="http://www.w3.org/2000/svg">
<g id="#131619ff">
</g>
<g id="#f9f9faff">
<path fill="#f9f9fa" opacity="1.00" d=" M 20.15 21.62 C 21.63 14.44 28.72 9.09 35.99 9.27 C 46.66 9.25 57.34 9.27 68.01 9.26 C 73.86 9.13 79.72 12.29 82.53 17.47 C 85.12 21.84 84.50 27.11 84.57 31.97 C 81.64 31.10 78.71 30.20 75.82 29.23 C 74.09 26.02 71.65 22.81 67.96 21.84 C 62.96 20.29 57.64 22.61 54.07 26.12 C 53.42 26.71 52.79 27.32 52.15 27.92 C 49.20 25.03 45.82 22.22 41.61 21.54 C 38.32 20.84 35.07 22.15 32.28 23.80 C 30.43 25.97 28.97 28.45 27.98 31.13 C 26.07 31.39 24.16 31.66 22.25 31.92 C 21.44 28.51 20.66 25.09 20.15 21.62 Z" />
</g>
<g id="#3bc083ff">
<path fill="#3bc083" opacity="1.00" d=" M 32.28 23.80 C 35.07 22.15 38.32 20.84 41.61 21.54 C 45.82 22.22 49.20 25.03 52.15 27.92 C 52.79 27.32 53.42 26.71 54.07 26.12 C 57.85 25.70 62.11 24.28 65.21 27.30 C 62.50 27.96 59.76 28.66 57.32 30.05 C 51.99 30.89 46.43 33.02 44.13 38.33 C 48.46 36.89 52.70 34.27 57.45 35.61 C 56.48 36.84 55.51 38.08 54.55 39.32 C 55.93 39.03 57.31 38.74 58.68 38.42 C 62.69 42.12 66.66 45.88 70.17 50.07 C 66.44 49.49 62.70 48.82 59.13 47.56 C 57.56 46.85 56.05 46.04 54.53 45.23 L 55.86 43.95 C 54.56 42.61 53.26 41.27 51.97 39.91 C 51.52 40.60 50.63 41.97 50.18 42.66 C 49.77 42.61 48.94 42.52 48.53 42.47 C 41.51 37.87 36.43 30.97 32.28 23.80 Z" />
</g>
<g id="#e7eaeeff">
<path fill="#e7eaee" opacity="1.00" d=" M 19.82 41.51 C 19.72 34.89 19.35 28.21 20.15 21.62 C 20.66 25.09 21.44 28.51 22.25 31.92 C 24.16 31.66 26.07 31.39 27.98 31.13 L 27.89 31.59 C 27.09 37.66 29.34 43.59 32.65 48.57 C 29.37 49.86 25.75 50.71 22.27 49.67 C 20.86 47.17 20.46 44.26 19.82 41.51 Z" />
</g>
<g id="#64d383ff">
<path fill="#64d383" opacity="1.00" d=" M 54.07 26.12 C 57.64 22.61 62.96 20.29 67.96 21.84 C 71.65 22.81 74.09 26.02 75.82 29.23 C 76.34 32.09 76.46 35.01 76.55 37.92 C 74.14 35.85 71.85 33.51 68.89 32.22 C 65.25 30.65 61.24 30.27 57.32 30.05 C 59.76 28.66 62.50 27.96 65.21 27.30 C 62.11 24.28 57.85 25.70 54.07 26.12 Z" />
</g>
<g id="#28a0d4ff">
<path fill="#28a0d4" opacity="1.00" d=" M 27.98 31.13 C 28.97 28.45 30.43 25.97 32.28 23.80 C 36.43 30.97 41.51 37.87 48.53 42.47 C 48.52 43.01 48.52 44.08 48.51 44.61 C 49.00 44.79 49.98 45.16 50.47 45.34 C 50.82 45.96 51.51 47.21 51.86 47.83 C 52.73 46.95 53.64 46.10 54.53 45.23 C 56.05 46.04 57.56 46.85 59.13 47.56 C 55.13 49.80 50.91 52.46 46.11 51.23 C 47.15 49.87 48.19 48.51 49.21 47.13 C 47.76 47.47 46.31 47.79 44.88 48.21 C 39.93 42.01 34.37 36.20 27.89 31.59 L 27.98 31.13 Z" />
</g>
<g id="#ffffffff">
<path fill="#ffffff" opacity="1.00" d=" M 192.19 27.17 C 194.70 27.16 197.20 27.16 199.71 27.17 C 199.73 37.45 199.71 47.72 199.72 58.00 C 197.21 58.00 194.69 58.00 192.18 58.00 C 192.19 47.72 192.18 37.45 192.19 27.17 Z" />
<path fill="#ffffff" opacity="1.00" d=" M 221.19 27.17 C 223.70 27.16 226.20 27.16 228.71 27.17 C 228.72 30.47 228.73 33.77 228.67 37.07 C 231.40 35.02 234.94 33.81 238.31 34.96 L 239.28 35.33 C 239.44 35.50 239.75 35.84 239.91 36.02 C 241.69 37.20 243.57 38.69 243.78 41.00 C 244.48 46.63 243.96 52.34 244.09 58.00 C 241.79 58.00 239.48 58.00 237.18 58.00 C 237.04 53.32 237.52 48.60 236.94 43.96 C 236.47 39.75 229.48 39.74 228.82 43.87 C 228.54 48.57 228.79 53.28 228.72 57.99 C 226.21 58.00 223.69 58.00 221.18 58.00 C 221.19 47.72 221.18 37.45 221.19 27.17 Z" />
<path fill="#ffffff" opacity="1.00" d=" M 254.07 28.99 C 258.22 27.89 262.98 28.06 266.61 30.56 C 268.83 32.11 269.66 34.79 270.15 37.33 C 267.56 37.36 264.98 37.36 262.39 37.32 C 261.42 34.61 258.65 33.89 256.14 34.91 C 256.13 36.10 256.25 37.29 256.49 38.45 C 258.40 39.72 260.66 40.25 262.77 41.10 C 265.38 42.36 268.31 43.81 269.50 46.64 C 270.70 49.59 269.30 52.72 268.15 55.44 C 264.04 58.99 257.77 59.20 252.96 57.06 C 249.85 55.68 248.27 52.46 247.84 49.24 C 250.46 49.15 253.08 49.15 255.70 49.23 C 256.11 53.34 263.45 53.55 262.54 48.95 C 259.36 45.78 254.38 45.86 250.73 43.40 C 249.18 40.97 247.64 38.02 248.66 35.07 C 249.15 32.14 251.68 30.37 254.07 28.99 Z" />
<path fill="#ffffff" opacity="1.00" d=" M 108.29 29.01 C 110.80 29.00 113.31 29.00 115.82 29.00 C 115.82 32.72 115.82 36.44 115.82 40.17 C 119.39 40.16 122.95 40.16 126.52 40.17 C 126.52 36.46 126.53 32.75 126.50 29.04 C 128.94 29.00 131.38 29.00 133.82 28.99 C 133.82 38.66 133.82 48.33 133.82 58.00 C 131.39 58.00 128.96 58.00 126.52 58.00 C 126.52 54.01 126.51 50.01 126.54 46.02 C 122.97 46.00 119.39 46.00 115.82 46.00 C 115.82 50.00 115.82 54.00 115.82 58.00 C 113.31 58.00 110.80 58.00 108.28 57.99 C 108.30 48.33 108.30 38.67 108.29 29.01 Z" />
<path fill="#ffffff" opacity="1.00" d=" M 205.54 29.14 C 208.07 29.16 210.61 29.17 213.16 29.23 C 213.15 31.15 213.15 33.07 213.15 35.00 C 214.59 35.00 216.04 35.00 217.49 35.00 C 217.49 36.97 217.49 38.94 217.50 40.91 C 216.06 40.92 214.62 40.96 213.18 41.02 L 212.10 41.11 C 211.90 44.33 211.92 47.57 212.22 50.78 L 213.19 51.34 C 214.58 52.12 216.23 51.95 217.75 52.17 C 217.72 54.11 217.71 56.04 217.72 57.98 C 215.40 58.00 213.08 58.08 210.77 58.02 C 208.84 56.86 206.48 55.51 206.22 53.02 C 205.75 49.03 206.04 45.00 206.01 40.99 L 205.00 40.97 C 204.40 40.96 203.21 40.93 202.61 40.92 C 202.61 38.97 202.61 37.03 202.60 35.08 C 203.34 35.04 204.81 34.95 205.55 34.91 C 205.53 32.99 205.53 31.06 205.54 29.14 Z" />
<path fill="#ffffff" opacity="1.00" d=" M 141.69 36.71 C 147.01 32.79 155.75 33.84 159.26 39.68 C 160.92 42.24 160.79 45.39 160.88 48.31 C 155.44 48.41 149.99 48.32 144.54 48.38 C 144.95 52.48 150.56 53.85 152.67 50.24 C 155.28 50.14 157.89 50.15 160.50 50.24 C 158.78 56.80 151.15 60.15 144.96 57.84 C 136.11 55.36 134.68 41.98 141.69 36.71 M 145.32 43.40 L 144.19 43.93 C 147.33 44.09 150.47 44.07 153.61 43.97 C 152.82 41.53 149.28 39.01 147.23 41.21 C 145.50 40.99 144.87 41.72 145.32 43.40 Z" />
<path fill="#ffffff" opacity="1.00" d=" M 169.16 35.05 C 173.03 33.58 177.37 34.61 180.34 37.44 C 180.29 36.83 180.17 35.62 180.11 35.01 C 182.57 35.00 185.03 35.00 187.49 35.00 C 187.49 42.67 187.49 50.33 187.49 58.00 C 185.03 58.00 182.58 58.00 180.13 57.99 C 180.18 57.34 180.28 56.02 180.34 55.37 C 177.45 58.34 173.00 59.32 169.11 57.86 C 161.07 53.03 161.00 39.81 169.16 35.05 M 169.90 46.00 C 169.56 48.77 171.53 51.15 173.95 52.21 C 178.29 52.75 181.59 47.88 179.63 44.03 C 178.93 41.43 175.97 40.96 173.72 40.62 C 172.02 42.00 169.82 43.53 169.90 46.00 Z" />
<path fill="#ffffff" opacity="1.00" d=" M 332.19 35.94 C 336.58 33.81 342.18 33.71 346.16 36.77 C 348.37 38.29 349.27 40.93 350.22 43.32 C 347.64 43.36 345.07 43.37 342.49 43.31 C 341.14 41.42 338.52 39.75 336.36 41.53 C 333.63 44.16 333.69 49.77 337.08 51.88 C 339.48 52.87 341.30 51.20 342.59 49.38 C 345.14 49.34 347.69 49.35 350.24 49.42 C 349.31 51.97 348.26 54.65 345.96 56.29 C 341.33 59.66 334.47 59.13 330.19 55.42 C 325.78 49.51 326.30 40.66 332.19 35.94 Z" />
<path fill="#ffffff" opacity="1.00" d=" M 271.73 35.03 C 274.53 35.00 277.34 35.00 280.14 35.02 C 281.81 39.50 283.25 44.08 285.32 48.39 C 286.97 43.98 288.61 39.57 290.12 35.11 C 292.87 34.99 295.62 34.99 298.37 34.98 L 298.08 35.54 C 295.14 40.85 293.12 46.60 290.66 52.14 C 288.36 57.78 285.63 63.26 283.75 69.08 C 281.10 69.00 278.45 68.99 275.80 68.97 L 275.96 68.68 C 278.08 64.98 279.74 61.05 281.44 57.14 C 278.21 49.94 275.55 42.48 271.95 35.45 L 271.73 35.03 Z" />
<path fill="#ffffff" opacity="1.00" d=" M 300.29 35.00 C 302.80 35.00 305.31 35.00 307.83 35.00 C 307.82 35.50 307.80 36.48 307.79 36.98 C 310.48 35.24 313.73 33.80 316.97 34.78 C 320.87 35.46 323.55 39.24 323.63 43.08 C 323.86 48.05 323.65 53.03 323.71 58.00 C 321.23 58.00 318.76 58.00 316.28 57.99 C 316.20 53.29 316.50 48.58 316.15 43.90 C 315.48 39.67 308.49 39.81 307.95 44.04 C 307.61 48.68 307.91 53.35 307.83 58.00 C 305.31 58.00 302.80 58.00 300.29 58.00 C 300.30 50.33 300.29 42.67 300.29 35.00 Z" />
</g>
<g id="#ebedf0ff">
<path fill="#ebedf0" opacity="1.00" d=" M 75.82 29.23 C 78.71 30.20 81.64 31.10 84.57 31.97 C 84.58 39.46 84.63 46.96 84.53 54.45 C 83.73 53.01 82.88 51.60 82.02 50.19 C 78.43 50.33 74.73 50.22 71.45 48.58 C 73.07 46.20 74.34 43.60 75.57 41.00 C 70.71 37.40 64.39 36.25 58.68 38.42 C 57.31 38.74 55.93 39.03 54.55 39.32 C 55.51 38.08 56.48 36.84 57.45 35.61 C 52.70 34.27 48.46 36.89 44.13 38.33 C 46.43 33.02 51.99 30.89 57.32 30.05 C 61.24 30.27 65.25 30.65 68.89 32.22 C 71.85 33.51 74.14 35.85 76.55 37.92 C 76.46 35.01 76.34 32.09 75.82 29.23 Z" />
</g>
<g id="#178fccff">
<path fill="#178fcc" opacity="1.00" d=" M 27.89 31.59 C 34.37 36.20 39.93 42.01 44.88 48.21 C 40.97 49.72 36.62 50.15 32.65 48.57 C 29.34 43.59 27.09 37.66 27.89 31.59 Z" />
</g>
<g id="#ad7c22ff">
</g>
<g id="#bb8b5cff">
</g>
<g id="#4ec983ff">
<path fill="#4ec983" opacity="1.00" d=" M 58.68 38.42 C 64.39 36.25 70.71 37.40 75.57 41.00 C 74.34 43.60 73.07 46.20 71.45 48.58 C 71.03 49.08 70.61 49.58 70.17 50.07 C 66.66 45.88 62.69 42.12 58.68 38.42 Z" />
</g>
<g id="#e5e8edff">
<path fill="#e5e8ed" opacity="1.00" d=" M 50.18 42.66 C 50.63 41.97 51.52 40.60 51.97 39.91 C 53.26 41.27 54.56 42.61 55.86 43.95 L 54.53 45.23 C 53.64 46.10 52.73 46.95 51.86 47.83 C 51.51 47.21 50.82 45.96 50.47 45.34 C 49.98 45.16 49.00 44.79 48.51 44.61 C 48.52 44.08 48.52 43.01 48.53 42.47 C 48.94 42.52 49.77 42.61 50.18 42.66 Z" />
</g>
<g id="#714419ff">
</g>
<g id="#b38a5dff">
</g>
<g id="#1e96cfff">
<path fill="#1e96cf" opacity="1.00" d=" M 57.32 52.08 C 59.54 53.32 61.77 54.54 64.02 55.74 C 59.64 58.33 55.02 62.48 49.56 61.33 C 46.78 59.91 44.08 58.33 41.39 56.73 C 46.99 56.61 52.94 55.94 57.32 52.08 Z" />
</g>
<g id="#fff0c3ff">
</g>
<g id="#c99c70ff">
</g>
<g id="#dde1e6ff">
<path fill="#dde1e6" opacity="1.00" d=" M 19.82 41.51 C 20.46 44.26 20.86 47.17 22.27 49.67 C 25.75 50.71 29.37 49.86 32.65 48.57 C 36.62 50.15 40.97 49.72 44.88 48.21 C 46.31 47.79 47.76 47.47 49.21 47.13 C 48.19 48.51 47.15 49.87 46.11 51.23 C 50.91 52.46 55.13 49.80 59.13 47.56 C 58.55 49.08 57.99 50.60 57.32 52.08 C 52.94 55.94 46.99 56.61 41.39 56.73 C 44.08 58.33 46.78 59.91 49.56 61.33 C 40.80 62.60 31.92 61.77 23.10 61.97 C 21.94 60.58 20.77 59.19 19.60 57.81 C 19.85 52.38 19.54 46.94 19.82 41.51 Z" />
</g>
<g id="#131681ff">
</g>
<g id="#35add9ff">
<path fill="#35add9" opacity="1.00" d=" M 59.13 47.56 C 62.70 48.82 66.44 49.49 70.17 50.07 C 68.25 52.09 66.22 54.01 64.02 55.74 C 61.77 54.54 59.54 53.32 57.32 52.08 C 57.99 50.60 58.55 49.08 59.13 47.56 Z" />
</g>
<g id="#d6dbe2ff">
<path fill="#d6dbe2" opacity="1.00" d=" M 70.17 50.07 C 70.61 49.58 71.03 49.08 71.45 48.58 C 74.73 50.22 78.43 50.33 82.02 50.19 C 82.88 51.60 83.73 53.01 84.53 54.45 C 85.04 58.92 84.17 63.76 81.32 67.34 C 78.25 71.42 73.15 73.75 68.07 73.64 C 57.04 73.61 46.02 73.70 35.00 73.59 C 26.72 73.44 19.63 66.06 19.60 57.81 C 20.77 59.19 21.94 60.58 23.10 61.97 C 31.92 61.77 40.80 62.60 49.56 61.33 C 55.02 62.48 59.64 58.33 64.02 55.74 C 66.22 54.01 68.25 52.09 70.17 50.07 Z" />
</g>
</svg>
