<?xml version="1.0" encoding="UTF-8" ?>
<!DOCTYPE svg PUBLIC "-//W3C//DTD SVG 1.1//EN" "http://www.w3.org/Graphics/SVG/1.1/DTD/svg11.dtd">
<svg width="497pt" height="455pt" viewBox="0 0 497 455" version="1.1" xmlns="http://www.w3.org/2000/svg">
<g id="#1c1e1fff">
</g>
<g id="#008037ff">
<path fill="#008037" opacity="1.00" d=" M 195.13 6.28 C 231.93 6.50 268.74 6.32 305.55 6.37 C 305.01 11.82 306.70 17.39 305.09 22.74 C 303.96 27.11 303.93 31.68 302.91 36.09 C 298.36 56.96 289.97 77.12 277.37 94.45 C 266.86 108.76 254.39 121.70 240.03 132.20 C 226.29 142.90 210.78 151.11 194.92 158.21 C 194.74 109.80 194.93 61.39 194.83 12.99 C 194.77 10.75 194.86 8.51 195.13 6.28 Z" />
<path fill="#008037" opacity="1.00" d=" M 225.99 355.00 C 246.51 328.60 274.58 308.66 305.13 295.41 C 305.67 299.61 305.33 303.85 305.40 308.07 C 305.37 354.45 305.48 400.84 305.35 447.22 C 268.53 447.34 231.71 447.38 194.90 447.21 C 194.76 444.53 194.78 441.85 195.10 439.19 C 195.74 428.37 196.55 417.44 199.97 407.09 C 205.13 388.23 214.12 370.51 225.99 355.00 Z" />
</g>
<g id="#aade5fff">
<path fill="#aade5f" opacity="1.00" d=" M 302.91 36.09 C 303.93 31.68 303.96 27.11 305.09 22.74 C 303.93 49.35 300.21 75.88 293.37 101.65 C 282.75 140.81 264.70 178.34 238.36 209.38 C 222.95 228.37 203.80 244.07 183.24 257.20 C 151.32 277.21 114.92 289.25 77.84 295.20 C 55.77 298.90 33.37 300.35 11.00 300.26 C 11.00 263.50 11.00 226.75 11.00 189.99 C 52.24 189.65 93.70 186.92 134.04 177.92 C 154.85 173.14 175.29 166.65 194.92 158.21 C 210.78 151.11 226.29 142.90 240.03 132.20 C 254.39 121.70 266.86 108.76 277.37 94.45 C 289.97 77.12 298.36 56.96 302.91 36.09 Z" />
<path fill="#aade5f" opacity="1.00" d=" M 385.98 166.49 C 419.41 156.89 454.33 153.71 489.00 153.19 C 488.93 190.00 489.15 226.82 488.88 263.63 C 452.07 263.55 415.18 266.39 378.98 273.20 C 353.67 277.99 328.74 285.03 305.13 295.41 C 274.58 308.66 246.51 328.60 225.99 355.00 C 214.12 370.51 205.13 388.23 199.97 407.09 C 196.55 417.44 195.74 428.37 195.10 439.19 C 194.61 427.07 196.27 415.01 197.34 402.97 C 200.53 379.22 204.70 355.42 212.92 332.83 C 218.37 317.02 224.51 301.34 232.85 286.81 C 249.20 256.96 271.09 229.84 298.36 209.31 C 324.24 189.19 354.58 175.45 385.98 166.49 Z" />
</g>
</svg>
